<?xml version="1.0" encoding="UTF-8"?>
<svg width="700pt" height="700pt" stroke="white" fill="white" version="1.1" viewBox="0 0 700 700" xmlns="http://www.w3.org/2000/svg" xmlns:xlink="http://www.w3.org/1999/xlink">
 <defs>
  <symbol id="s" overflow="visible">
   <path d="m4.9062-0.29688c-0.25 0.13672-0.51562 0.23438-0.79688 0.29688-0.27344 0.070312-0.55469 0.10938-0.84375 0.10938-0.89844 0-1.6055-0.25-2.125-0.75-0.52344-0.5-0.78125-1.1758-0.78125-2.0312 0-0.85156 0.25781-1.5234 0.78125-2.0156 0.51953-0.5 1.2266-0.75 2.125-0.75 0.28906 0 0.57031 0.039062 0.84375 0.10938 0.28125 0.0625 0.54688 0.15625 0.79688 0.28125v1.1094c-0.25-0.17578-0.5-0.30078-0.75-0.375-0.25-0.082031-0.51172-0.125-0.78125-0.125-0.49219 0-0.875 0.15625-1.1562 0.46875s-0.42188 0.74609-0.42188 1.2969c0 0.55469 0.14062 0.99219 0.42188 1.3125 0.28125 0.3125 0.66406 0.46875 1.1562 0.46875 0.26953 0 0.53125-0.039063 0.78125-0.125 0.25-0.082031 0.5-0.21094 0.75-0.39062z"/>
  </symbol>
  <symbol id="c" overflow="visible">
   <path d="m3.5938-2.9219c-0.11719-0.050781-0.23047-0.085937-0.34375-0.10938-0.10547-0.019531-0.21484-0.03125-0.32812-0.03125-0.33594 0-0.58984 0.10547-0.76562 0.3125-0.17969 0.21094-0.26562 0.51172-0.26562 0.90625v1.8438h-1.2812v-4h1.2812v0.65625c0.16406-0.26953 0.35156-0.46094 0.5625-0.57812 0.21875-0.125 0.47656-0.1875 0.78125-0.1875 0.039063 0 0.085937 0.007813 0.14062 0.015625 0.050781 0 0.125 0.007812 0.21875 0.015625z"/>
  </symbol>
  <symbol id="a" overflow="visible">
   <path d="m4.6094-2.0156v0.35938h-2.9844c0.03125 0.30469 0.13281 0.53125 0.3125 0.6875 0.1875 0.14844 0.45312 0.21875 0.79688 0.21875 0.25781 0 0.53125-0.035156 0.8125-0.10938 0.28906-0.082031 0.58203-0.20703 0.875-0.375v0.98438c-0.30469 0.11719-0.60547 0.20312-0.90625 0.26562-0.30469 0.0625-0.60547 0.09375-0.90625 0.09375-0.73047 0-1.2969-0.17969-1.7031-0.54688-0.39844-0.375-0.59375-0.89453-0.59375-1.5625 0-0.65625 0.19531-1.1719 0.59375-1.5469 0.39453-0.375 0.9375-0.5625 1.625-0.5625 0.63281 0 1.1406 0.19531 1.5156 0.57812 0.375 0.375 0.5625 0.88281 0.5625 1.5156zm-1.3125-0.42188c0-0.25-0.074219-0.44531-0.21875-0.59375-0.13672-0.14453-0.32031-0.21875-0.54688-0.21875-0.25 0-0.45312 0.074219-0.60938 0.21875-0.15625 0.13672-0.25 0.33594-0.28125 0.59375z"/>
  </symbol>
  <symbol id="e" overflow="visible">
   <path d="m2.4062-1.7969c-0.26172 0-0.46094 0.046875-0.59375 0.14062-0.13672 0.085938-0.20312 0.21484-0.20312 0.39062 0 0.16797 0.050781 0.29688 0.15625 0.39062 0.11328 0.085938 0.26562 0.125 0.45312 0.125 0.23828 0 0.44141-0.082031 0.60938-0.25 0.16406-0.17578 0.25-0.39453 0.25-0.65625v-0.14062zm1.9688-0.48438v2.2812h-1.2969v-0.59375c-0.17969 0.24219-0.375 0.41797-0.59375 0.53125-0.21094 0.11328-0.46484 0.17188-0.76562 0.17188-0.41797 0-0.75781-0.11719-1.0156-0.35938-0.26172-0.25-0.39062-0.56641-0.39062-0.95312 0-0.46875 0.16016-0.8125 0.48438-1.0312 0.32031-0.21875 0.83203-0.32812 1.5312-0.32812h0.75v-0.10938c0-0.19531-0.085937-0.34375-0.25-0.4375-0.15625-0.09375-0.40234-0.14062-0.73438-0.14062-0.28125 0-0.54297 0.027344-0.78125 0.078125-0.23047 0.054687-0.44531 0.13672-0.64062 0.25v-0.98438c0.26953-0.0625 0.53906-0.10938 0.8125-0.14062 0.28125-0.039063 0.5625-0.0625 0.84375-0.0625 0.71875 0 1.2383 0.14844 1.5625 0.4375 0.32031 0.28125 0.48438 0.74609 0.48438 1.3906z"/>
  </symbol>
  <symbol id="b" overflow="visible">
   <path d="m2.0156-5.1406v1.1406h1.3125v0.90625h-1.3125v1.7031c0 0.1875 0.035156 0.3125 0.10938 0.375 0.070312 0.0625 0.21875 0.09375 0.4375 0.09375h0.65625v0.92188h-1.0938c-0.51172 0-0.87109-0.10156-1.0781-0.3125-0.21094-0.21875-0.3125-0.57812-0.3125-1.0781v-1.7031h-0.64062v-0.90625h0.64062v-1.1406z"/>
  </symbol>
  <symbol id="n" overflow="visible">
   <path d="m3.3438-3.4219v-2.1406h1.2812v5.5625h-1.2812v-0.57812c-0.17969 0.24219-0.375 0.41797-0.59375 0.53125-0.21094 0.10156-0.45312 0.15625-0.73438 0.15625-0.49219 0-0.89844-0.19531-1.2188-0.59375-0.3125-0.39453-0.46875-0.89844-0.46875-1.5156 0-0.61328 0.15625-1.1172 0.46875-1.5156 0.32031-0.39453 0.72656-0.59375 1.2188-0.59375 0.28125 0 0.52344 0.058594 0.73438 0.17188 0.21875 0.11719 0.41406 0.28906 0.59375 0.51562zm-0.84375 2.5938c0.26953 0 0.47656-0.097656 0.625-0.29688 0.14453-0.19531 0.21875-0.48828 0.21875-0.875 0-0.38281-0.074219-0.67578-0.21875-0.875-0.14844-0.19531-0.35547-0.29688-0.625-0.29688-0.27344 0-0.48047 0.10156-0.625 0.29688-0.14844 0.19922-0.21875 0.49219-0.21875 0.875 0 0.38672 0.070312 0.67969 0.21875 0.875 0.14453 0.19922 0.35156 0.29688 0.625 0.29688z"/>
  </symbol>
  <symbol id="m" overflow="visible">
   <path d="m2.75-0.82812c0.26953 0 0.47656-0.097656 0.625-0.29688 0.14453-0.19531 0.21875-0.48828 0.21875-0.875 0-0.38281-0.074219-0.67578-0.21875-0.875-0.14844-0.19531-0.35547-0.29688-0.625-0.29688-0.27344 0-0.48438 0.10547-0.64062 0.3125-0.14844 0.19922-0.21875 0.48438-0.21875 0.85938s0.070313 0.66797 0.21875 0.875c0.15625 0.19922 0.36719 0.29688 0.64062 0.29688zm-0.85938-2.5938c0.17578-0.22656 0.375-0.39844 0.59375-0.51562 0.21875-0.11328 0.46094-0.17188 0.73438-0.17188 0.5 0 0.90625 0.19922 1.2188 0.59375 0.32031 0.39844 0.48438 0.90234 0.48438 1.5156 0 0.61719-0.16406 1.1211-0.48438 1.5156-0.3125 0.39844-0.71875 0.59375-1.2188 0.59375-0.27344 0-0.51562-0.058594-0.73438-0.17188-0.21875-0.11328-0.41797-0.28516-0.59375-0.51562v0.57812h-1.2812v-5.5625h1.2812z"/>
  </symbol>
  <symbol id="l" overflow="visible">
   <path d="m0.09375-4h1.2812l1.0781 2.7188 0.90625-2.7188h1.2812l-1.6875 4.375c-0.16797 0.44531-0.36719 0.75781-0.59375 0.9375-0.21875 0.17578-0.51562 0.26562-0.89062 0.26562h-0.73438v-0.84375h0.40625c0.20703 0 0.35938-0.039063 0.45312-0.10938 0.10156-0.0625 0.1875-0.18359 0.25-0.35938l0.03125-0.10938z"/>
  </symbol>
  <symbol id="k" overflow="visible">
   <path d="m0.67188-5.3438h1.375v2.0312h2.0312v-2.0312h1.375v5.3438h-1.375v-2.2656h-2.0312v2.2656h-1.375z"/>
  </symbol>
  <symbol id="j" overflow="visible">
   <path d="m0.57812-1.5625v-2.4375h1.2812v0.39062 0.82812 0.65625c0 0.3125 0.003906 0.54297 0.015625 0.6875 0.019531 0.14844 0.050781 0.25 0.09375 0.3125 0.050781 0.085938 0.11719 0.15234 0.20312 0.20312 0.082031 0.042969 0.17969 0.0625 0.29688 0.0625 0.25781 0 0.46875-0.10156 0.625-0.3125 0.15625-0.20703 0.23438-0.49219 0.23438-0.85938v-1.9688h1.2656v4h-1.2656v-0.57812c-0.19922 0.23047-0.40625 0.40234-0.625 0.51562-0.21094 0.11328-0.44531 0.17188-0.70312 0.17188-0.46875 0-0.82422-0.14062-1.0625-0.42188-0.24219-0.28906-0.35938-0.70703-0.35938-1.25z"/>
  </symbol>
  <symbol id="i" overflow="visible">
   <path d="m4.3281-3.3438c0.16406-0.25 0.35938-0.4375 0.57812-0.5625 0.21875-0.13281 0.46094-0.20312 0.73438-0.20312 0.45703 0 0.80469 0.14844 1.0469 0.4375 0.25 0.28125 0.375 0.69531 0.375 1.2344v2.4375h-1.2969v-2.0938-0.09375c0.007813-0.03125 0.015625-0.078125 0.015625-0.14062 0-0.28125-0.042969-0.48438-0.125-0.60938-0.085938-0.13281-0.21875-0.20312-0.40625-0.20312-0.25 0-0.44531 0.10547-0.57812 0.3125-0.125 0.19922-0.19531 0.48438-0.20312 0.85938v1.9688h-1.2812v-2.0938c0-0.4375-0.042969-0.71875-0.125-0.84375-0.074219-0.13281-0.20312-0.20312-0.39062-0.20312-0.25 0-0.44531 0.10547-0.57812 0.3125-0.13672 0.19922-0.20312 0.48438-0.20312 0.85938v1.9688h-1.2812v-4h1.2812v0.57812c0.15625-0.22656 0.33594-0.39844 0.54688-0.51562 0.20703-0.11328 0.42969-0.17188 0.67188-0.17188 0.28125 0 0.52344 0.070313 0.73438 0.20312 0.21875 0.13672 0.37891 0.32422 0.48438 0.5625z"/>
  </symbol>
  <symbol id="h" overflow="visible">
   <path d="m4.6406-2.4375v2.4375h-1.2812v-1.875c0-0.34375-0.011719-0.57812-0.03125-0.70312-0.011719-0.13281-0.039063-0.23438-0.078125-0.29688-0.054688-0.082031-0.12109-0.14453-0.20312-0.1875-0.085937-0.050781-0.18359-0.078125-0.29688-0.078125-0.26172 0-0.46875 0.10547-0.625 0.3125-0.15625 0.21094-0.23438 0.49609-0.23438 0.85938v1.9688h-1.2812v-4h1.2812v0.57812c0.19531-0.22656 0.40625-0.39844 0.625-0.51562 0.21875-0.11328 0.45703-0.17188 0.71875-0.17188 0.45703 0 0.80469 0.14844 1.0469 0.4375 0.23828 0.28125 0.35938 0.69531 0.35938 1.2344z"/>
  </symbol>
  <symbol id="g" overflow="visible">
   <path d="m3.8594-3.875v1.0312c-0.17969-0.11328-0.35547-0.19531-0.53125-0.25-0.17969-0.0625-0.35938-0.09375-0.54688-0.09375-0.35547 0-0.63281 0.10547-0.82812 0.3125-0.19922 0.21094-0.29688 0.5-0.29688 0.875s0.097656 0.66797 0.29688 0.875c0.19531 0.21094 0.47266 0.3125 0.82812 0.3125 0.19531 0 0.38281-0.023438 0.5625-0.078125 0.1875-0.0625 0.35938-0.15625 0.51562-0.28125v1.0469c-0.21094 0.085938-0.41797 0.14062-0.625 0.17188-0.19922 0.039062-0.40234 0.0625-0.60938 0.0625-0.73047 0-1.2969-0.1875-1.7031-0.5625s-0.60938-0.89062-0.60938-1.5469 0.20312-1.1719 0.60938-1.5469 0.97266-0.5625 1.7031-0.5625c0.20703 0 0.41016 0.023437 0.60938 0.0625 0.20703 0.03125 0.41406 0.089844 0.625 0.17188z"/>
  </symbol>
  <symbol id="f" overflow="visible">
   <path d="m4.6406-2.4375v2.4375h-1.2812v-1.8594c0-0.35156-0.011719-0.59375-0.03125-0.71875-0.011719-0.13281-0.039063-0.23438-0.078125-0.29688-0.054688-0.082031-0.12109-0.14453-0.20312-0.1875-0.085937-0.050781-0.18359-0.078125-0.29688-0.078125-0.26172 0-0.46875 0.10547-0.625 0.3125-0.15625 0.21094-0.23438 0.49609-0.23438 0.85938v1.9688h-1.2812v-5.5625h1.2812v2.1406c0.19531-0.22656 0.40625-0.39844 0.625-0.51562 0.21875-0.11328 0.45703-0.17188 0.71875-0.17188 0.45703 0 0.80469 0.14844 1.0469 0.4375 0.23828 0.28125 0.35938 0.69531 0.35938 1.2344z"/>
  </symbol>
  <symbol id="r" overflow="visible">
   <path d="m3.25-5.5625v0.82812h-0.70312c-0.1875 0-0.32031 0.039063-0.39062 0.10938-0.0625 0.0625-0.09375 0.17969-0.09375 0.34375v0.28125h1.0938v0.90625h-1.0938v3.0938h-1.2812v-3.0938h-0.64062v-0.90625h0.64062v-0.28125c0-0.4375 0.11719-0.75781 0.35938-0.96875 0.23828-0.20703 0.61328-0.3125 1.125-0.3125z"/>
  </symbol>
  <symbol id="d" overflow="visible">
   <path d="m2.5156-3.1875c-0.28125 0-0.49609 0.10547-0.64062 0.3125-0.14844 0.19922-0.21875 0.49219-0.21875 0.875 0 0.38672 0.070312 0.68359 0.21875 0.89062 0.14453 0.19922 0.35938 0.29688 0.64062 0.29688s0.49219-0.097656 0.64062-0.29688c0.15625-0.20703 0.23438-0.50391 0.23438-0.89062 0-0.38281-0.078125-0.67578-0.23438-0.875-0.14844-0.20703-0.35938-0.3125-0.64062-0.3125zm0-0.92188c0.69531 0 1.2383 0.1875 1.625 0.5625 0.38281 0.375 0.57812 0.89062 0.57812 1.5469s-0.19531 1.1719-0.57812 1.5469c-0.38672 0.375-0.92969 0.5625-1.625 0.5625-0.6875 0-1.2305-0.1875-1.625-0.5625-0.38672-0.375-0.57812-0.89062-0.57812-1.5469s0.19141-1.1719 0.57812-1.5469c0.39453-0.375 0.9375-0.5625 1.625-0.5625z"/>
  </symbol>
  <symbol id="q" overflow="visible">
   <path d="m0.67188-5.3438h1.5469l1.9375 3.6719v-3.6719h1.2969v5.3438h-1.5312l-1.9375-3.6719v3.6719h-1.3125z"/>
  </symbol>
  <symbol id="p" overflow="visible">
   <path d="m0.67188-5.3438h2.2812c0.6875 0 1.207 0.15234 1.5625 0.45312 0.36328 0.30469 0.54688 0.73438 0.54688 1.2969 0 0.55469-0.18359 0.98047-0.54688 1.2812-0.35547 0.30469-0.875 0.45312-1.5625 0.45312h-0.90625v1.8594h-1.375zm1.375 1v1.4844h0.76562c0.26953 0 0.47656-0.0625 0.625-0.1875 0.14453-0.125 0.21875-0.30469 0.21875-0.54688 0-0.23828-0.074219-0.42188-0.21875-0.54688-0.14844-0.13281-0.35547-0.20312-0.625-0.20312z"/>
  </symbol>
  <symbol id="o" overflow="visible">
   <path d="m0.60938-4h1.2812v3.9219c0 0.53906-0.13281 0.95312-0.39062 1.2344-0.25 0.28125-0.62109 0.42188-1.1094 0.42188h-0.64062v-0.84375h0.23438c0.23828 0 0.39844-0.058594 0.48438-0.17188 0.09375-0.10547 0.14062-0.32031 0.14062-0.64062zm0-1.5625h1.2812v1.0469h-1.2812z"/>
  </symbol>
 </defs>
 <g>
  <path d="m686.22 321.2c-8.5664 4.1133-17.047 8.4492-25.438 12.918-8.6992 4.6406-17.324 9.4297-25.875 14.309-17.691 10.105-35.145 20.621-52.559 31.18-14.879 9.9727-29.539 20.297-44.184 30.621-12.594 8.8906-25.188 17.793-37.973 26.402-12.141 8.1875-24.457 16.125-37.125 23.477-23.578 13.664-48.547 25.32-75.258 31.355-12.418 2.8125-25.043 4.3477-37.781 4.4805h-0.042969c-12.742-0.13281-25.363-1.668-37.781-4.4805-26.711-6.0352-51.68-17.691-75.273-31.355-12.652-7.3516-24.984-15.289-37.109-23.477-12.785-8.6094-25.379-17.516-37.988-26.402-9.9727-7.0273-19.945-14.059-29.992-20.984-10.367-7.1445-20.809-14.176-31.398-20.984-10.91-7-21.965-13.766-33.215-20.18-11.598-6.6055-23.387-12.844-35.426-18.613-6.5039-3.1328-13.137-6.0039-19.785-8.832l-0.42578-0.17578 0.085937-0.19141c-3.3398-1.668-6.1797-4.1289-8.2305-7.25-2.2852-3.4727-3.4258-7.5117-3.4258-11.672 0-4.1445 1.1406-8.1875 3.4258-11.656 2.2852-3.4727 5.5352-6.1211 9.3594-7.7773 14.016-6.0352 27.723-12.742 41.152-19.977 12.988-6.9844 25.699-14.453 38.191-22.273 12.098-7.5703 23.988-15.465 35.777-23.52 11.379-7.7891 22.641-15.727 33.902-23.68 12.609-8.875 25.203-17.777 37.988-26.391 12.125-8.1875 24.457-16.125 37.109-23.477 23.594-13.664 48.562-25.32 75.273-31.355 12.418-2.8125 25.043-4.3477 37.781-4.4805h0.042969c12.742 0.13281 25.363 1.668 37.781 4.4805 26.711 6.0352 51.68 17.691 75.258 31.355 12.668 7.3516 24.984 15.289 37.125 23.477 12.785 8.6094 25.379 17.516 37.973 26.391 11.277 7.9531 22.539 15.891 33.918 23.68 11.773 8.0547 23.68 15.949 35.777 23.52 12.492 7.8203 25.203 15.289 38.18 22.273 13.445 7.2344 27.152 13.941 41.164 19.977 3.8086 1.6562 7.0742 4.3047 9.3594 7.7773s3.4258 7.5117 3.4258 11.656c0 4.1602-1.1406 8.1992-3.4258 11.672-2.2852 3.4727-5.5508 6.1055-9.3594 7.7617l-0.98047 0.42578zm-106.54 54.449c16.402-10.996 33.066-21.57 50.215-31.383 17.953-10.266 36.406-19.668 55.414-27.867 2.957-1.2734 5.4922-3.3086 7.2617-6.0039 1.7852-2.6953 2.6367-5.8281 2.6367-9.0508 0-3.207-0.84766-6.3555-2.6367-9.0508-1.4492-2.1953-3.4258-3.9844-5.7422-5.2578-23.605-9.9297-46.641-21.117-69.297-33.039-21.32-11.219-42.277-23.051-63.234-34.914-14.98-8.4922-29.977-16.988-45.121-25.172-14.352-7.7461-28.879-15.23-43.699-22.039-27.621-12.684-56.469-23.078-86.664-27.473-9.5469-1.3906-19.168-2.168-28.805-2.2539-10.355 0.10156-20.664 0.98047-30.887 2.5625-29.582 4.582-57.844 14.895-84.922 27.414-14.512 6.707-28.746 14.059-42.805 21.672-14.836 8.0391-29.508 16.371-44.184 24.703-21 11.906-41.984 23.781-63.352 35.016-22.758 11.98-45.895 23.211-69.633 33.156l-0.42578 0.17578-0.042969-0.11719c-2.5625 1.2891-4.7578 3.1641-6.3398 5.5664-1.7734 2.6953-2.6367 5.8438-2.6367 9.0508 0 3.2227 0.86328 6.3555 2.6367 9.0508 1.7734 2.6953 4.3203 4.7305 7.2773 6.0039 6.75 2.9141 13.414 6.0469 20.062 9.1836 22.07 10.398 43.48 22.039 64.48 34.414 19.754 11.629 39.113 23.887 58.445 36.188 13.328 8.4648 26.637 16.945 40.125 25.145 12.801 7.7773 25.746 15.305 39.012 22.23 24.719 12.902 50.684 23.754 78.156 29.098 11.555 2.2539 23.254 3.5 35.016 3.6172 17.238-0.17578 34.488-3.6016 50.961-8.5078 9.1094-2.7227 18.086-5.918 26.918-9.4453 9.3594-3.7344 18.582-7.8359 27.68-12.168 9.5352-4.5547 18.949-9.3711 28.262-14.352 9.6641-5.168 19.227-10.527 28.719-15.992 19.551-11.246 38.82-22.961 58.109-34.664l9.0352-5.4922zm-229.68-193.22c15.918 0 31.633 3.1328 46.289 9.3438 14.117 5.9766 26.977 14.645 37.797 25.48 10.836 10.836 19.52 23.695 25.496 37.812 6.1953 14.66 9.3438 30.359 9.3438 46.277 0 15.934-3.1484 31.633-9.3438 46.289-5.9766 14.117-14.66 26.977-25.496 37.812-10.82 10.82-23.68 19.508-37.797 25.48-14.66 6.1953-30.371 9.3438-46.289 9.3438-15.918 0-31.617-3.1484-46.277-9.3438-14.117-5.9766-26.977-14.66-37.812-25.48-10.836-10.836-19.508-23.695-25.48-37.812-6.2109-14.66-9.3438-30.359-9.3438-46.289 0-15.918 3.1328-31.617 9.3438-46.277 5.9766-14.117 14.645-26.977 25.48-37.812s23.695-19.508 37.812-25.48c14.66-6.1953 30.359-9.3438 46.277-9.3438zm-112.07 97.195-0.67188 3.793c-0.92188 5.9297-1.3906 11.934-1.3906 17.926 0 15.289 3.0156 30.359 8.9609 44.445 5.7422 13.547 14.059 25.875 24.473 36.273 10.398 10.398 22.727 18.73 36.273 24.473 14.086 5.9453 29.156 8.9609 44.43 8.9609 15.289 0 30.359-3.0156 44.43-8.9609 13.562-5.7422 25.891-14.074 36.289-24.473 10.398-10.398 18.73-22.727 24.473-36.273 5.9453-14.086 8.9609-29.156 8.9609-44.445 0-15.273-3.0156-30.344-8.9609-44.43-5.7422-13.547-14.074-25.875-24.473-36.273-10.398-10.398-22.727-18.73-36.289-24.473-14.074-5.9453-29.141-8.9609-44.43-8.9609-15.273 0-30.344 3.0156-44.43 8.9609-13.547 5.7422-25.875 14.074-36.273 24.473-16.109 16.109-27.062 36.625-31.367 58.988zm109.69-168.06c-2.0508 0.042969-4.0859 0.14453-6.1367 0.26172l2.2695 25.715c1.2891-0.042968 2.5781-0.085937 3.8672-0.11719v-25.863zm174.11 304.43c-12.566 7.3086-25.219 14.469-38.062 21.277-15.188 8.0703-30.664 15.699-46.512 22.391-7.4531 3.1328-14.996 6.0781-22.641 8.7266-7.2773 2.5195-14.66 4.7734-22.129 6.6797-13.809 3.5-28.074 5.8125-42.352 5.9609h-0.042969c-12.93-0.13281-25.773-1.582-38.441-4.2031-27.371-5.668-53.23-16.605-77.879-29.551-13.164-6.9141-26.039-14.41-38.75-22.141-10.809-6.5742-21.512-13.328-32.203-20.121 0.61328 0.4375 1.2461 0.87891 1.875 1.3164 12.684 8.9609 25.379 17.91 38.25 26.594 12.199 8.2148 24.574 16.184 37.312 23.52 23.594 13.605 48.633 25.16 75.391 30.871 11.348 2.418 22.859 3.75 34.457 3.8672 11.598-0.11719 23.125-1.4492 34.457-3.8672 25.934-5.5352 50.246-16.547 73.191-29.598 12.344-7.0273 24.355-14.66 36.172-22.551 9.3867-6.2695 18.656-12.695 27.898-19.168zm66.324-183.39c-8.0977-5.332-16.125-10.777-24.105-16.285l-0.61328 2.4023c8.2305 4.6562 16.461 9.3008 24.719 13.883zm-29.012-16.312 0.73047-2.8555-3.4141-2.3711-0.83594 3.2383 1.1289 0.64453 2.3867 1.3477zm-7.8047-4.4219 0.95312-3.7188-3.75-2.6367-1.0703 4.1719zm-8.1562-4.6133 1.1992-4.6562-3.9258-2.7695-1.332 5.1562 4.0547 2.2695zm-8.3477-4.6875 1.4648-5.668-0.76172-0.54297-3.8086-2.6797-1.6094 6.2539zm-9.0078-5.0234 1.7422-6.7969-3.5742-2.5039-1.8594 7.2617 3.6914 2.0352zm-7.9961-4.3945 2.0078-7.8359-4.4375-3.1055-2.168 8.4336 4.5977 2.5039zm-8.918-4.832 2.3125-8.9922-4.6133-3.1914-2.4609 9.6367c1.582 0.84766 3.1797 1.6992 4.7578 2.5469zm-9.0938-4.832 2.6211-10.207-3.5859-2.4297-2.7539 10.703zm-8.0547-4.1602 2.8984-11.305c-1.4062-0.9375-2.8281-1.875-4.2461-2.8125l-3.0469 11.891c1.4648 0.73047 2.9297 1.4805 4.3945 2.2266zm-8.7422-4.3945 3.1914-12.477c-1.2578-0.83594-2.5469-1.6562-3.8203-2.4766l-3.3398 13.004c1.3164 0.64453 2.6523 1.2891 3.9688 1.9492zm-8.332-4.043 3.4844-13.605c-1.1992-0.76172-2.418-1.5078-3.6172-2.2695l-3.6328 14.102c1.2578 0.58594 2.5039 1.1719 3.7617 1.7734zm-8.1406-3.8086 3.7617-14.672c-1.0234-0.62891-2.0664-1.2578-3.0898-1.875l-3.8789 15.098c1.0703 0.48438 2.1367 0.96484 3.207 1.4492zm-7.6133-3.3984 4.0117-15.684c-1.0117-0.58594-2.0195-1.1875-3.0312-1.7734l-4.1289 16.094c1.0547 0.45312 2.0938 0.90625 3.1484 1.3633zm-7.5859-3.2227 4.2773-16.664c-1.0703-0.60156-2.1367-1.1875-3.207-1.7852l-4.3945 17.074c1.1133 0.45312 2.2266 0.90625 3.3242 1.375zm-7.7773-3.1484 4.5391-17.633c-1.2578-0.66016-2.5195-1.3164-3.7773-1.9766l-4.6406 18.113c1.2891 0.48438 2.5938 0.99609 3.8789 1.4922zm-8.3633-3.1641 4.7891-18.641c-1.2148-0.61328-2.4297-1.1992-3.6445-1.8008l-4.9062 19.098c1.2578 0.4375 2.5039 0.89453 3.7617 1.3477zm-8.2734-2.8984 5.0391-19.609c-1.2461-0.57031-2.5039-1.1406-3.75-1.6992l-5.1562 20.035c1.2891 0.42578 2.5781 0.84766 3.8672 1.2734zm-8.4062-2.6953 5.2734-20.531c-1.1992-0.51172-2.4023-1.0117-3.6172-1.5078l-5.375 20.926c1.2461 0.36719 2.4766 0.73047 3.7188 1.1133zm-8.3047-2.4023 5.5078-21.395c-1.5977-0.61328-3.1914-1.2148-4.8047-1.7852l-5.625 21.879c1.6406 0.42578 3.2812 0.86328 4.9219 1.3047zm-9.5352-2.4297 5.7266-22.316c-1.1875-0.39453-2.3711-0.77734-3.5742-1.1562l-5.8125 22.641c1.2148 0.27734 2.4297 0.55469 3.6602 0.83594zm-8.332-1.8164 5.9297-23.051c-1.4922-0.42578-2.9883-0.84766-4.4961-1.2461l-6.0195 23.43c1.5391 0.26172 3.0625 0.55469 4.582 0.86328zm-9.2852-1.668 6.1055-23.797c-1.5391-0.36719-3.0742-0.71875-4.6289-1.0391l-6.1953 24.121c1.5664 0.21875 3.1484 0.45312 4.7148 0.71875zm-9.4766-1.3164 6.2812-24.457c-1.918-0.35156-3.8203-0.67188-5.7422-0.98047l-4.4375 24.996c1.2891 0.13281 2.5938 0.27734 3.8945 0.4375zm-8.668-0.86328 4.4805-25.219c-1.9922-0.25-3.9844-0.46875-5.9883-0.64453l-2.2539 25.598c1.2578 0.074219 2.5039 0.16016 3.7617 0.26172zm-8.5234-0.51172 2.2695-25.715c-2.0508-0.11719-4.1016-0.21875-6.1523-0.26172v25.863c1.2891 0.027344 2.5938 0.074219 3.8789 0.11719zm-216.04 75.871 0.78906 3.0898 3.5156-1.9922-0.87891-3.4727-3.4258 2.3711zm-3.4844 5.5195-0.6875-2.6367c-8.8906 6.1367-17.836 12.199-26.871 18.102 9.2109-5.0977 18.395-10.281 27.562-15.465zm11.07-10.809 1.0117 3.9531 3.8789-2.1953-1.1289-4.3945zm7.9219-5.5508 1.2461 4.8906 4.0547-2.2852-1.3906-5.375zm8.0703-5.6953 1.5234 5.8867 4.7148-2.6523-1.668-6.457-3.8203 2.6953-0.74609 0.52734zm8.7266-6.1523 1.8008 7 3.6914-2.0508-1.918-7.4531zm7.7305-5.418 2.0508 7.9961 4.5977-2.5039-2.1953-8.5977zm8.6094-6.0039 2.3594 9.1523c1.582-0.84766 3.1797-1.6992 4.7734-2.5469l-2.5195-9.7812-4.6133 3.1797zm8.7852-6.0469 2.6641 10.367 3.7188-1.9492-2.7969-10.852-3.5859 2.4297zm7.7773-5.2422 2.9453 11.422c1.4492-0.74609 2.9141-1.4922 4.3789-2.2422l-3.0742-12.008c-1.4219 0.9375-2.8281 1.875-4.2461 2.8281zm8.4492-5.5781 3.2227 12.594c1.3164-0.66016 2.6523-1.3047 3.9688-1.9492l-3.3672-13.121c-1.2734 0.82031-2.5469 1.6406-3.8203 2.4766zm8.0391-5.168 3.5156 13.707c1.2578-0.60156 2.5039-1.1992 3.75-1.7852l-3.6445-14.191c-1.1992 0.76172-2.418 1.5078-3.6172 2.2695zm7.8633-4.875 3.793 14.762c1.0703-0.48438 2.1367-0.96484 3.207-1.4492l-3.8945-15.188c-1.0391 0.61328-2.0781 1.2461-3.1055 1.875zm7.3672-4.4062 4.043 15.758c1.0391-0.45313 2.0938-0.90625 3.1484-1.3633l-4.1602-16.152c-1.0117 0.57031-2.0195 1.1719-3.0312 1.7578zm7.3203-4.2031 4.2891 16.723c1.0977-0.46875 2.2109-0.92188 3.3242-1.375l-4.4062-17.133c-1.0703 0.60156-2.1367 1.1875-3.207 1.7852zm7.5273-4.1133 4.5391 17.691c1.2891-0.51172 2.5938-1.0117 3.8789-1.5078l-4.6562-18.16c-1.2578 0.66016-2.5195 1.3164-3.7617 1.9766zm8.0977-4.1719 4.8047 18.688c1.2578-0.45312 2.5039-0.90625 3.7617-1.3633l-4.9219-19.109c-1.2148 0.58594-2.4297 1.1719-3.6445 1.7852zm8.0234-3.8672 5.0508 19.637c1.2891-0.42578 2.5625-0.84766 3.8672-1.2734l-5.168-20.062c-1.2461 0.55469-2.5039 1.1289-3.75 1.6992zm8.1719-3.6172 5.2852 20.562c1.2305-0.37891 2.4766-0.76172 3.7188-1.1133l-5.3906-20.957c-1.2148 0.49609-2.418 0.99609-3.6172 1.5078zm8.082-3.2656 5.4922 21.41c1.6406-0.4375 3.2812-0.87891 4.9219-1.3047l-5.625-21.895c-1.6094 0.58594-3.207 1.1719-4.7891 1.7852zm9.3008-3.3555 5.7422 22.332c1.2148-0.27734 2.4297-0.55469 3.6602-0.83594l-5.8281-22.656c-1.1875 0.37891-2.3867 0.76172-3.5742 1.1562zm8.1289-2.5352 5.9297 23.051c1.5234-0.30859 3.0469-0.60156 4.582-0.87891l-6.0195-23.43c-1.5078 0.41016-3.0039 0.82031-4.4961 1.2578zm9.1094-2.418 6.1055 23.781c1.5664-0.25 3.1484-0.48438 4.7305-0.70312l-6.2109-24.133c-1.5508 0.33594-3.0898 0.6875-4.6289 1.0547zm9.3008-1.9766 6.2812 24.441c1.3047-0.14453 2.6055-0.29297 3.9102-0.42578l-4.4375-24.996c-1.918 0.29297-3.8359 0.62891-5.7539 0.98047zm10.484-1.625 4.4648 25.219c1.2578-0.10156 2.5039-0.19141 3.7617-0.26172l-2.2539-25.598c-1.9922 0.17578-3.9961 0.39453-5.9766 0.64453z" fill-rule="evenodd"/>
  <path d="m351.77 228.7c3.0312 0.10156 6.0625 0.4375 9.0664 0.99609l9.5195-43.773-6.0469 44.535c2.8984 0.71875 5.7695 1.6406 8.5977 2.7383l17.191-41.984-13.883 43.391c2.6797 1.2148 5.3008 2.5938 7.8477 4.1133l24.543-38.879-21.469 40.828c2.4297 1.6094 4.7734 3.3555 7.0156 5.2148l31.191-34.312-28.41 36.715c2.1523 1.9336 4.2031 3.9844 6.1367 6.1367l36.715-28.41-34.312 31.18c1.875 2.2539 3.6016 4.5977 5.2148 7.0156l40.812-21.453-38.867 24.543c1.5234 2.5469 2.9141 5.168 4.1133 7.8477l43.391-13.883-41.984 17.191c1.1133 2.8125 2.0195 5.6836 2.7383 8.5977l44.535-6.0469-43.773 9.5195c0.55469 3.0039 0.89453 6.0352 0.99609 9.0664l44.562 1.7734-44.562 1.7578c-0.074219 3.0898-0.33594 6.1367-0.78906 9.125l43.566 9.4609-44.168-5.9883c-0.61328 3.0156-1.4062 5.9609-2.3711 8.8438l41.254 16.887-42.453-13.574c-1.1289 2.8555-2.418 5.625-3.8789 8.2891l37.695 23.797-39.453-20.75c-1.5977 2.6211-3.3555 5.1094-5.2578 7.4961l32.992 29.992-35.262-27.297c-2.0195 2.3008-4.1719 4.4531-6.4727 6.4727l27.297 35.262-29.992-32.992c-2.3867 1.9023-4.875 3.6602-7.4961 5.2578l20.75 39.465-23.797-37.711c-2.6641 1.4648-5.4336 2.7695-8.2891 3.8789l13.574 42.453-16.898-41.254c-2.8711 0.96484-5.8125 1.7734-8.832 2.3711l5.9883 44.168-9.4766-43.566c-2.9727 0.45312-6.0195 0.71875-9.1094 0.78906l-1.7734 44.562-1.7578-44.562c-3.0898-0.074219-6.1367-0.33594-9.125-0.78906l-9.4609 43.566 5.9883-44.168c-3.0156-0.61328-5.9609-1.4062-8.8438-2.3711l-16.887 41.254 13.574-42.453c-2.8555-1.1289-5.625-2.418-8.2891-3.8789l-23.797 37.711 20.75-39.465c-2.6211-1.5977-5.1094-3.3555-7.4961-5.2578l-29.992 32.992 27.297-35.262c-2.3008-2.0195-4.4531-4.1719-6.4727-6.4727l-35.262 27.297 32.992-29.992c-1.9023-2.3867-3.6602-4.875-5.2578-7.4961l-39.465 20.75 37.711-23.797c-1.4648-2.6641-2.7695-5.4336-3.8789-8.2891l-42.453 13.574 41.254-16.887c-0.96484-2.8867-1.7734-5.8281-2.3711-8.8438l-44.168 5.9883 43.566-9.4766c-0.45312-2.9727-0.71875-6.0195-0.78906-9.1094l-44.562-1.7578 44.562-1.7734c0.074218-3.0898 0.33594-6.1367 0.77734-9.1094l-43.551-9.4766 44.168 5.9883c0.60156-3.0156 1.3906-5.9609 2.3594-8.8438l-41.238-16.887 42.453 13.574c1.1133-2.8555 2.418-5.625 3.8672-8.2891l-37.695-23.797 39.465 20.75c1.5977-2.6211 3.3555-5.1094 5.2578-7.4961l-32.992-29.992 35.262 27.297c2.0195-2.3008 4.1719-4.4531 6.457-6.4727l-27.281-35.262 29.992 32.992c2.3711-1.9023 4.875-3.6602 7.4844-5.2578l-20.738-39.465 23.797 37.695c2.6641-1.4492 5.4336-2.7539 8.2891-3.8672l-13.574-42.453 16.887 41.254c2.8711-0.96484 5.8281-1.7734 8.8438-2.3711l-5.9883-44.168 9.4609 43.551c2.9883-0.4375 6.0352-0.70312 9.125-0.77734l1.7578-44.562 1.7734 44.562zm-1.7734 28.703c22.113 0 43.949 21.73 43.949 43.934 0 24.266-19.684 43.949-43.949 43.949s-43.934-19.684-43.934-43.949c0-24.25 19.668-43.934 43.934-43.934z" fill-rule="evenodd"/>
  <path d="m349.98 267.36c18.773 0 33.988 15.215 33.988 33.977 0 18.773-15.215 33.988-33.988 33.988-18.758 0-33.977-15.215-33.977-33.988 0-18.758 15.215-33.977 33.977-33.977zm13.473 37.254c3.0039 0 5.918 2.7109 5.918 5.7109 0 3.0156-2.1953 5.418-5.2148 5.418-3.0039 0-6.1641-2.4023-6.1641-5.418 0-3.0039 2.4609-5.7109 5.4609-5.7109zm-15.246-17.484c5.668 0 11.16 5.0977 11.16 10.762 0 5.668-4.5977 10.793-10.266 10.793s-11.188-5.125-11.188-10.793 4.6289-10.762 10.297-10.762z" fill-rule="evenodd"/>
  <use y="517.914062" xlink:href="#s"/>
  <use x="5.375" y="517.914062" xlink:href="#c"/>
  <use x="8.984375" y="517.914062" xlink:href="#a"/>
  <use x="13.949219" y="517.914062" xlink:href="#e"/>
  <use x="18.890625" y="517.914062" xlink:href="#b"/>
  <use x="22.390625" y="517.914062" xlink:href="#a"/>
  <use x="27.359375" y="517.914062" xlink:href="#n"/>
  <use x="35.148438" y="517.914062" xlink:href="#m"/>
  <use x="40.390625" y="517.914062" xlink:href="#l"/>
  <use x="47.710938" y="517.914062" xlink:href="#k"/>
  <use x="53.839844" y="517.914062" xlink:href="#j"/>
  <use x="59.054688" y="517.914062" xlink:href="#i"/>
  <use x="66.683594" y="517.914062" xlink:href="#e"/>
  <use x="71.625" y="517.914062" xlink:href="#h"/>
  <use x="76.835938" y="517.914062" xlink:href="#b"/>
  <use x="80.335938" y="517.914062" xlink:href="#a"/>
  <use x="85.300781" y="517.914062" xlink:href="#g"/>
  <use x="89.644531" y="517.914062" xlink:href="#f"/>
  <use y="525.234375" xlink:href="#r"/>
  <use x="3.1875" y="525.234375" xlink:href="#c"/>
  <use x="6.796875" y="525.234375" xlink:href="#d"/>
  <use x="11.828125" y="525.234375" xlink:href="#i"/>
  <use x="22.003906" y="525.234375" xlink:href="#b"/>
  <use x="25.507813" y="525.234375" xlink:href="#f"/>
  <use x="30.71875" y="525.234375" xlink:href="#a"/>
  <use x="38.234375" y="525.234375" xlink:href="#q"/>
  <use x="44.363281" y="525.234375" xlink:href="#d"/>
  <use x="49.390625" y="525.234375" xlink:href="#j"/>
  <use x="54.605469" y="525.234375" xlink:href="#h"/>
  <use x="62.367188" y="525.234375" xlink:href="#p"/>
  <use x="67.734375" y="525.234375" xlink:href="#c"/>
  <use x="71.34375" y="525.234375" xlink:href="#d"/>
  <use x="76.375" y="525.234375" xlink:href="#o"/>
  <use x="78.886719" y="525.234375" xlink:href="#a"/>
  <use x="83.851563" y="525.234375" xlink:href="#g"/>
  <use x="88.191406" y="525.234375" xlink:href="#b"/>
 </g>
</svg>
